<svg version="1.1" id="Layer_1" xmlns="http://www.w3.org/2000/svg" xmlns:xlink="http://www.w3.org/1999/xlink" x="0px" y="0px"
	 viewBox="0 0 600 600" enable-background="new 0 0 600 600" xml:space="preserve">
    
	<g>
    <circle fill="#FBB317" stroke="#010101" stroke-miterlimit="10" cx="150" cy="150" r="150"></circle>
            <animateTransform attributeName="transform"
                attributeType="XML"
                type="scale"
                from="0"
                to="1"
                dur="3s"
                repeatCount="1" />
    </g>
    
	<g>
        <path fill="#761B54" d="M146.5,12.8h6.9c35.1,0,67.2,14.3,96.5,43c13.4,16,20.1,26.8,20.1,32.4V91c0,6.7-4.4,11.6-13.2,14.7
        l-3.2,0.4c-8,0-14.6-5.5-19.7-16.5c-10.1-13-20.6-22.6-31.6-28.8c-16.4-9.5-33.3-14.2-50.8-14.2h-3.2c-34,0-62.3,15.7-85,47.1
        c-10.4,17.9-15.6,35.8-15.6,53.6v3.2c0,34,15.7,62.3,47.1,85c17.8,10.4,35.6,15.6,53.5,15.6h3.2c29.7,0,55.6-12.4,77.9-37.1
        c6.8-10.4,11.5-16.8,14.2-19.2c3.2-2.1,6.7-3.2,10.5-3.2c7.4,0,12.8,4.5,16,13.6v4.1c0,7.6-9.5,21-28.4,40.2
        c-27.4,23.5-56.6,35.3-87.8,35.3h-7.3c-36.4,0-69.2-15.1-98.4-45.3c-22.9-27.3-34.3-56.4-34.3-87.4v-6.9c0-36.3,15.1-69,45.3-98.3
        C86.4,24.3,115.5,12.8,146.5,12.8z">
            <animateTransform attributeName="transform"
                attributeType="XML"
                type="rotate"
                from="0 150 150"
                to="360 150 150"
                dur="3s"
                repeatCount="1"
                additive="sum" />
	   </path>
            <animateTransform attributeName="transform"
                attributeType="XML"
                type="scale"
                from="0"
                to="1"
                dur="3s"
                repeatCount="1" 
                additive="sum" />
	</g>
    
    <g enable-background="new">
        <path fill="#0A6D3D" d="M91.6,79.4H94c4.3,0,7.6,2.7,9.8,8.2c0.4,0.8,0.7,2,0.7,3.5c0,3.6-2.4,7.7-7.2,12.3
            c-11.2,13.8-16.8,28.5-16.8,44v3.1c0,23,10.4,42.3,31.2,57.8c12.3,7,21.1,10.5,26.6,10.5c0,0.3,0.9,0.5,2.6,0.7V147
            c1.7-6.9,5.6-10.4,11.7-10.4c7.6,1.5,11.3,5,11.3,10.8l0.3,2.9v68.6c13.3-2.7,24-7.7,32.3-15.1c16.9-14.9,25.3-32.6,25.3-53.2v-3.1
            c0-18.1-7.5-34.9-22.5-50.3c-1.1-2.3-1.6-4.5-1.6-6.7c0-5.1,3.2-8.8,9.5-11h3.5c5.7,0,13.7,8.9,24,26.6
            c6.9,13.7,10.4,27.4,10.4,41.1v5.1c0,21-7.9,41-23.7,60c-10.2,10.2-18.9,17.1-26.2,20.6c-14.3,7.2-28.1,10.8-41.4,10.8h-5.4
            c-17.3,0-34.3-5.6-51.2-16.8c-12.3-9.2-21.7-19.4-28.2-30.7c-8-15.3-12-29.9-12-43.9V147c0-23.8,9.4-45.5,28.1-65.2
            C87.9,80.2,90,79.4,91.6,79.4z">	  
            <animateTransform attributeName="transform"
                attributeType="XML"
                type="rotate"
                from="0 150 150"
                to="-360 150 150"
                dur="3s"
                repeatCount="1"
                additive="sum" />
        </path>
            <animateTransform attributeName="transform"
                attributeType="XML"
                type="scale"
                additive="sum"
                from="0"
                to="1"
                dur="3s"
                repeatCount="1" />
    </g>
</svg>
